HIERARCHY
ROOT Hips
{
	OFFSET 0.000000 0.000000 0.000000 
	CHANNELS 6 Xposition Yposition Zposition Yrotation Zrotation Xrotation 
	JOINT Lumbar
	{
		OFFSET 0.000000 0.000000 0.000000 
		CHANNELS 3 Zrotation Xrotation Yrotation
		JOINT Neck
		{
			OFFSET 0.000000 0.445665 0.000000 
			CHANNELS 3 Zrotation Xrotation Yrotation
			End Site
			{
				OFFSET 0.000000 0.227535 0.000000 
			}
		}
		JOINT RightShoulder
		{
			OFFSET 0.019635 0.377685 0.194865 
			CHANNELS 3 Zrotation Xrotation Yrotation
			JOINT RightElbow
			{
				OFFSET 0.000000 -0.243375 0.000000 
				CHANNELS 2 Zrotation Yrotation
				JOINT RightWrist
				{
					OFFSET 0.000000 -0.264825 0.000000 
					CHANNELS 2 Zrotation Xrotation
					End Site
					{
						OFFSET 0.006600 -0.176220 0.000990 
					}
				}
			}
		}
		JOINT LeftShoulder
		{
			OFFSET 0.019635 0.377685 -0.194865 
			CHANNELS 3 Zrotation Xrotation Yrotation
			JOINT LeftElbow
			{
				OFFSET 0.000000 -0.243375 0.000000 
				CHANNELS 2 Zrotation Yrotation
				JOINT LeftWrist
				{
					OFFSET 0.000000 -0.264825 0.000000 
					CHANNELS 2 Zrotation Xrotation
					End Site
					{
						OFFSET 0.006600 -0.176220 -0.000990 
					}
				}
			}
		}
	}
	JOINT RightHip
	{
		OFFSET 0.052140 -0.069960 0.075570 
		CHANNELS 3 Zrotation Xrotation Yrotation
		JOINT RightKnee
		{
			OFFSET 0.000000 -0.402270 0.000000 
			CHANNELS 1 Zrotation
			JOINT RightAnkle
			{
				OFFSET 0.000000 -0.404085 0.000000 
				CHANNELS 3 Zrotation Xrotation Yrotation
				End Site
				{
					OFFSET 0.204105 -0.089430 0.008415 
				}
			}
		}
	}
	JOINT LeftHip
	{
		OFFSET 0.052140 -0.069960 -0.075570 
		CHANNELS 3 Zrotation Xrotation Yrotation
		JOINT LeftKnee
		{
			OFFSET 0.000000 -0.402270 0.000000 
			CHANNELS 1 Zrotation
			JOINT LeftAnkle
			{
				OFFSET 0.000000 -0.404085 0.000000 
				CHANNELS 3 Zrotation Xrotation Yrotation
				End Site
				{
					OFFSET 0.204105 -0.089430 -0.008415 
				}
			}
		}
	}
}
MOTION
Frames: 30
Frame Time: 0.02
-1.32214 -0.27657 0.35567 733.63052 -28.41998 -0.45499 36.79726 4.5052 34.60482 6.34326 3.57114 -0.83079 47.49591 -17.88254 -70.21597 10.05295 77.12542 -13.25173 -2.34095 -56.6876 5.54065 45.99527 52.25657 -88.05787 1.35501 -2.27451 43.00556 -0.84009 -13.87812 -45.53776 -6.58679 -3.34559 -2.37118 61.27968 -6.91443 5.92506 -4.51231 -8.45856 6.79654 4.04336
-1.29509 -0.27627 0.35357 733.97249 -27.89412 -0.15088 36.79132 4.07638 34.68367 6.21445 3.4669 -0.83079 47.45862 -17.19245 -69.46057 10.13444 77.02208 -13.50182 -2.28662 -56.36716 5.43315 47.85869 51.08767 -83.95342 -0.77461 -2.24487 42.91411 -1.28554 -12.90539 -48.94241 -7.05108 -3.17978 -2.3007 61.63627 -6.92308 7.31827 -8.02281 -8.40046 6.13549 3.72263
-1.26702 -0.27646 0.35117 734.20823 -27.19865 0.11592 36.77216 3.58656 34.64184 6.12346 3.47162 -0.83079 47.43423 -16.46921 -69.70395 9.95263 77.51234 -13.7332 -2.43208 -55.90711 5.5222 49.2792 49.89187 -78.95343 -3.37675 -2.20571 43.09026 -1.81571 -11.72187 -53.00296 -7.63502 -2.95497 -2.20276 62.86281 -6.34316 9.21746 -15.26081 -8.37922 5.13901 3.25128
-1.23955 -0.2763 0.34894 734.47491 -26.5779 0.38873 36.7483 3.13976 34.63581 6.01622 3.42866 -0.83079 47.42226 -15.75251 -69.58743 9.87494 77.78401 -13.96736 -2.5017 -55.46556 5.49472 50.82787 48.74034 -74.32648 -5.79382 -2.18525 43.19819 -2.31317 -10.65062 -56.75223 -8.15103 -2.76638 -2.12197 63.59024 -6.0399 10.81389 -20.60131 -8.33015 4.32921 2.86394
-1.21145 -0.27673 0.34656 734.81254 -25.96279 0.70849 36.76963 2.62773 34.70921 5.90291 3.38062 -0.83079 47.3285 -15.06748 -69.05908 9.8663 77.82782 -14.23178 -2.50334 -55.21442 5.58423 52.70414 47.44989 -69.79057 -8.11133 -2.10693 43.08311 -2.78736 -9.50389 -60.59052 -8.72504 -2.53779 -2.02136 64.72811 -5.70877 12.69442 -26.77905 -8.32521 3.37968 2.41278
-1.18445 -0.27601 0.34443 734.98028 -25.29987 0.91979 36.69553 2.23767 34.58433 5.81404 3.3672 -0.83079 47.40822 -14.30862 -69.61587 9.65376 78.47916 -14.42837 -2.69187 -54.52989 5.48845 53.75809 46.44519 -64.92158 -10.70961 -2.14282 43.49277 -3.32776 -8.46962 -64.36251 -9.20599 -2.37904 -1.95578 65.23078 -5.29082 14.11111 -32.10596 -8.23959 2.63852 2.05757
-1.16063 -0.27214 0.34303 734.67727 -24.51519 0.86017 36.33864 2.1948 33.9982 5.75874 3.43239 -0.83079 47.98542 -13.37533 -73.12011 8.89517 80.82141 -14.41696 -3.39822 -52.71901 4.67451 52.999 46.21823 -58.73107 -14.33307 -2.53357 45.31204 -4.05353 -7.75815 -68.07811 -9.40574 -2.42165 -1.99046 63.73663 -4.78823 14.13823 -34.1812 -7.90398 2.56896 2.01012
-1.13797 -0.26706 0.34191 734.21246 -23.69445 0.68959 35.89009 2.27728 33.2076 5.73122 3.52639 -0.83079 48.73384 -12.36654 -77.65114 7.94782 83.73045 -14.3409 -4.27821 -50.46703 3.69194 51.37166 46.28262 -52.34173 -18.16139 -3.03307 47.64262 -4.83847 -7.17345 -71.64484 -9.50713 -2.53728 -2.06173 61.58308 -4.21509 13.68207 -35.27407 -7.48939 2.71751 2.06311
-1.11485 -0.26242 0.3407 733.83925 -22.91073 0.55676 35.49797 2.30585 32.4735 5.70722 3.60083 -0.83079 49.39043 -11.37823 -81.58742 7.11738 86.27759 -14.3105 -5.0461 -48.39804 2.89142 49.90517 46.22668 -46.46251 -21.64993 -3.45811 49.72548 -5.58169 -6.55855 -75.09703 -9.64969 -2.6238 -2.11855 59.75364 -3.66562 13.44048 -36.81207 -7.1231 2.75645 2.06602
-1.09143 -0.25824 0.33932 733.38434 -22.0333 0.47464 35.04302 2.32094 31.88633 5.61672 3.7072 -0.83079 50.10585 -10.44392 -86.09482 6.14809 89.27827 -14.21315 -5.95854 -46.41202 1.66372 49.3793 46.12204 -38.82046 -26.17246 -3.98715 51.89359 -6.39194 -5.82614 -79.36225 -9.80969 -2.69256 -2.16599 57.8478 -3.13135 13.23632 -38.4806 -6.70591 2.82812 2.08244
-1.06891 -0.25282 0.33835 733.06472 -21.34555 0.26293 34.69736 2.39273 30.94935 5.67044 3.7515 -0.83079 50.74011 -9.38361 -89.64864 5.42456 91.47015 -14.23727 -6.61153 -44.13256 1.26966 46.73214 46.1843 -34.76372 -28.61372 -4.32725 53.98813 -7.07367 -5.36432 -81.86399 -9.91052 -2.81456 -2.24106 55.93714 -2.55617 12.83436 -39.60133 -6.37524 2.88767 2.09649
-1.04858 -0.24408 0.33842 733.14063 -21.18363 -0.29583 34.67603 2.60751 29.07098 6.1179 3.62532 -0.83079 51.10038 -7.96103 -90.2703 5.44477 91.21039 -14.63694 -6.47922 -41.30486 3.3313 38.11403 46.6712 -41.1022 -24.99637 -4.10381 55.87428 -7.40124 -5.68151 -79.7634 -9.8532 -3.08178 -2.3917 54.13756 -1.88898 11.98836 -39.38223 -6.30492 2.86307 2.08077
-1.02911 -0.23416 0.33889 733.36222 -21.21562 -0.97809 34.76805 2.87231 26.85402 6.70825 3.43388 -0.83079 51.37394 -6.42107 -89.90039 5.71689 90.1283 -15.15676 -6.08356 -38.17073 6.21433 27.4553 47.30927 -50.97905 -19.3226 -3.68915 57.64607 -7.59415 -6.25698 -75.85559 -9.74229 -3.39724 -2.56739 52.35813 -1.18555 10.95903 -38.6397 -6.32379 2.8202 2.05985
-1.00924 -0.22487 0.33919 733.52905 -21.16455 -1.5927 34.80799 3.10306 24.80814 7.23231 3.26622 -0.83079 51.69317 -4.95589 -90.0114 5.8622 89.47294 -15.6055 -5.82507 -35.0744 8.64825 17.94529 47.85567 -58.94501 -14.76099 -3.37228 59.38895 -7.83828 -6.6728 -72.60931 -9.66808 -3.6805 -2.72648 50.58989 -0.49895 10.02356 -38.16224 -6.30028 2.78526 2.04104
-0.98947 -0.2151 0.33946 733.64134 -21.09214 -2.25924 34.8465 3.38516 22.67827 7.76579 3.12346 -0.83079 51.99434 -3.39547 -90.03284 6.0516 88.61701 -16.12095 -5.49974 -32.38393 11.40213 7.46552 48.51054 -68.17321 -9.46216 -3.01403 61.48702 -8.12662 -7.26727 -69.99668 -9.5398 -4.01012 -2.90924 48.71483 0.193 9.03308 -37.53782 -6.28194 2.75815 2.02616
-0.96966 -0.2061 0.33988 733.90458 -21.10897 -2.84628 34.91687 3.5715 20.6508 8.30981 2.91418 -0.83079 52.30727 -2.00914 -89.9895 6.21299 87.9722 -16.52755 -5.24776 -28.78987 13.67976 -1.46172 48.96992 -75.62644 -5.20131 -2.69416 62.81682 -8.29017 -7.55448 -65.68225 -9.51094 -4.25313 -3.04771 47.07357 0.88017 8.11226 -37.10785 -6.2749 2.70901 2.00126
-0.94975 -0.19935 0.34066 734.54418 -21.33971 -3.17638 35.04113 3.47321 18.94648 8.87633 2.52687 -0.83079 52.69728 -1.11009 -90.01915 6.22533 88.14027 -16.59717 -5.2706 -22.71073 14.50345 -5.64706 48.86994 -77.21617 -4.36671 -2.53496 62.00257 -8.13969 -6.88577 -56.72353 -9.7839 -4.25031 -3.06167 46.09488 1.55576 7.49818 -37.34322 -6.27965 2.59048 1.94358
-0.92974 -0.19343 0.34159 735.33207 -21.65063 -3.42319 35.19489 3.27805 17.36642 9.44272 2.07713 -0.83079 53.09577 -0.39451 -90.00788 6.20463 88.54028 -16.55389 -5.37391 -15.75325 14.80988 -8.18674 48.56651 -76.91449 -4.63803 -2.41895 60.42554 -7.86757 -5.90666 -46.18994 -10.15589 -4.15779 -3.0295 45.3519 2.22356 6.9519 -37.79956 -6.2932 2.45157 1.87661
-0.90964 -0.18724 0.34246 736.05644 -21.91566 -3.71197 35.34022 3.13139 15.7576 9.9909 1.66197 -0.83079 53.47552 0.38976 -90.00769 6.20545 88.81318 -16.56832 -5.43442 -9.23503 15.31172 -11.44635 48.33924 -77.54578 -4.362 -2.27749 59.22877 -7.65346 -5.09794 -36.62884 -10.47461 -4.10201 -3.0154 44.4874 2.88683 6.32886 -38.15557 -6.30077 2.32969 1.81767
-0.89014 -0.18059 0.34333 736.77073 -22.22872 -3.98682 35.46978 2.96616 14.01749 10.62272 1.21635 -0.83079 53.9197 1.23891 -90.01733 6.18352 89.15204 -16.56336 -5.51246 -2.51166 16.00477 -14.89602 48.17307 -77.99912 -4.19487 -2.15408 57.88801 -7.42662 -4.17411 -25.91042 -10.82919 -4.06309 -3.01348 43.67592 3.58283 5.885 -38.48107 -6.31736 2.17532 1.74287
-0.86936 -0.17509 0.34421 737.53775 -22.45652 -4.27046 35.63605 2.81781 12.58774 11.07654 0.8227 -0.83079 54.22715 1.90942 -89.99448 6.20281 89.41591 -16.56601 -5.57611 3.95774 16.17204 -17.53195 47.84584 -78.31704 -4.10089 -2.00571 56.6655 -7.19482 -3.41345 -17.26476 -11.12966 -3.96944 -2.97607 42.8199 4.21167 5.09663 -38.94371 -6.31912 2.08297 1.69853
-0.84502 -0.17274 0.34512 738.42802 -22.44371 -4.58677 35.9105 2.72278 11.96239 11.05435 0.56646 -0.83079 54.20424 2.11501 -90.02844 6.299 89.4463 -16.65639 -5.58438 9.77086 14.96007 -18.31221 46.97697 -78.802 -3.85334 -1.78048 55.97041 -7.01786 -3.17457 -14.62555 -11.28875 -3.72598 -2.84162 41.7002 4.62615 3.25605 -39.61242 -6.25111 2.17613 1.74419
-0.81942 -0.17151 0.34602 739.36339 -22.33901 -4.91568 36.21769 2.65051 11.65139 10.8495 0.36896 -0.83079 54.03518 2.14833 -90.01351 6.44356 89.39093 -16.7518 -5.57559 15.24454 13.24415 -18.3206 45.97696 -79.18559 -3.66426 -1.52985 55.41716 -6.83447 -3.1108 -14.15159 -11.38477 -3.43391 -2.67475 40.54463 4.9775 1.08401 -40.43547 -6.17197 2.33113 1.82034
-0.79444 -0.16967 0.3469 740.26768 -22.26548 -5.24692 36.50019 2.5793 11.21225 10.71733 0.15891 -0.83079 53.90049 2.27245 -89.93251 6.59604 89.35988 -16.8169 -5.57374 20.70592 11.78843 -18.68126 45.13578 -79.54384 -3.51855 -1.28908 54.79187 -6.62804 -2.9679 -12.7669 -11.48806 -3.17768 -2.52953 39.45785 5.37956 -0.88113 -41.26958 -6.11549 2.45133 1.87991
-0.76923 -0.16827 0.34788 741.22003 -22.23816 -5.54421 36.82531 2.45855 10.7134 10.6286 -0.11299 -0.83079 53.89921 2.34286 -90.20981 6.62712 89.4011 -16.99079 -5.57943 26.91537 10.17789 -18.98559 43.87962 -80.13146 -3.12792 -1.05364 54.17744 -6.52297 -2.80998 -11.03041 -11.68281 -2.8613 -2.35397 38.15106 5.69414 -3.08517 -41.77211 -5.98679 2.59752 1.94985
-0.74422 -0.1662 0.34865 742.08341 -22.0935 -5.91266 37.06889 2.4452 10.41411 10.40633 -0.2414 -0.83079 53.58794 2.47978 -89.74541 6.91562 89.26498 -16.94784 -5.56253 31.45705 8.78389 -19.23756 43.44553 -80.252 -3.23074 -0.80448 53.57709 -6.21178 -2.73203 -10.5444 -11.67367 -2.65856 -2.23392 37.29926 6.16885 -4.86668 -42.99427 -6.00358 2.7065 2.00655
-0.71987 -0.16204 0.349 742.66701 -21.63126 -6.5053 37.08006 2.74445 10.57222 9.85651 0.01329 -0.83079 52.43363 2.90222 -87.11186 7.96653 88.6918 -16.24327 -5.50353 31.61758 8.05171 -19.59873 45.43131 -79.01868 -4.8237 -0.48963 53.04564 -5.29177 -2.80656 -13.14356 -11.09159 -2.79262 -2.2802 37.63923 7.16229 -5.43689 -46.201 -6.44319 2.68061 2.01044
-0.69581 -0.15716 0.34913 743.16186 -21.05683 -7.16343 37.00768 3.14753 10.92355 9.17913 0.41033 -0.83079 50.97696 3.38774 -83.75816 9.26353 87.93731 -15.33166 -5.41943 30.07903 7.56853 -19.92704 48.22682 -77.34331 -6.88137 -0.16767 52.51638 -4.17306 -2.96155 -16.90592 -10.31068 -3.04101 -2.38267 38.44985 8.30749 -5.56269 -50.1142 -7.02602 2.61817 2.00146
-0.67175 -0.15259 0.34927 743.71319 -20.54364 -7.77223 36.9729 3.48929 11.19591 8.56252 0.74185 -0.83079 49.67323 3.80559 -80.82245 10.40596 87.24247 -14.55673 -5.33535 29.22335 7.01278 -20.23932 50.57684 -75.93933 -8.62544 0.12848 51.94609 -3.17272 -3.09831 -20.03571 -9.63704 -3.2303 -2.45632 39.0932 9.34339 -5.86985 -53.68593 -7.53131 2.58408 2.00437
-0.64708 -0.14813 0.34976 744.20291 -19.98332 -8.46546 36.94097 3.89116 11.43911 7.92809 1.07935 -0.83079 48.29746 4.3802 -77.50435 11.7289 86.6359 -13.60508 -5.29706 28.73978 6.26751 -20.66551 53.25403 -74.23798 -10.7966 0.5194 51.54459 -2.05276 -3.1647 -23.67241 -8.89018 -3.44831 -2.54286 39.54272 10.54809 -6.28057 -57.36908 -8.08919 2.50368 1.98352
